inDegrees=no
num_controls=7
num_derivatives=13
num_iterations=193
num_multipliers=7
num_parameters=0
num_slacks=7
num_states=26
objective=5.081499
objective_accelerations=0.395034
objective_balance=0.010220
objective_effort=0.355128
objective_height=4.297544
objective_ligament=0.023573
solver_duration=1643.788891
status=Solve_Succeeded
success=true
DataType=double
version=3
OpenSimVersion=4.4-2022-07-23-0e9fedc
endheader
time	/jointset/ground_pelvis/pelvis_tilt/value	/jointset/ground_pelvis/pelvis_tx/value	/jointset/ground_pelvis/pelvis_ty/value	/jointset/hip_r/hip_flexion_r/value	/jointset/hip_r/hip_adduction_r/value	/jointset/hip_r/hip_rotation_r/value	/jointset/back/lumbar_extension/value	/jointset/patellofemoral_r/patellar_flexion_r/value	/jointset/knee_r/knee_flexion_r/value	/jointset/knee_r/knee_adduction_r/value	/jointset/knee_r/knee_rotation_r/value	/jointset/ankle_r/ankle_angle_r/value	/jointset/subtalar_r/subtalar_angle_r/value	/jointset/ground_pelvis/pelvis_tilt/speed	/jointset/ground_pelvis/pelvis_tx/speed	/jointset/ground_pelvis/pelvis_ty/speed	/jointset/hip_r/hip_flexion_r/speed	/jointset/hip_r/hip_adduction_r/speed	/jointset/hip_r/hip_rotation_r/speed	/jointset/back/lumbar_extension/speed	/jointset/patellofemoral_r/patellar_flexion_r/speed	/jointset/knee_r/knee_flexion_r/speed	/jointset/knee_r/knee_adduction_r/speed	/jointset/knee_r/knee_rotation_r/speed	/jointset/ankle_r/ankle_angle_r/speed	/jointset/subtalar_r/subtalar_angle_r/speed	/forceset/tau_hip_flexion_r	/forceset/tau_hip_adduction_r	/forceset/tau_hip_rotation_r	/forceset/tau_knee_flexion_r	/forceset/tau_ankle_angle_r	/forceset/tau_subtalar_angle_r	/forceset/tau_lumbar_extension	lambda_cid13_p0	lambda_cid14_p0	lambda_cid14_p1	lambda_cid14_p2	lambda_cid14_p3	lambda_cid14_p4	lambda_cid14_p5	/jointset/ground_pelvis/pelvis_tilt/accel	/jointset/ground_pelvis/pelvis_tx/accel	/jointset/ground_pelvis/pelvis_ty/accel	/jointset/hip_r/hip_flexion_r/accel	/jointset/hip_r/hip_adduction_r/accel	/jointset/hip_r/hip_rotation_r/accel	/jointset/back/lumbar_extension/accel	/jointset/patellofemoral_r/patellar_flexion_r/accel	/jointset/knee_r/knee_flexion_r/accel	/jointset/knee_r/knee_adduction_r/accel	/jointset/knee_r/knee_rotation_r/accel	/jointset/ankle_r/ankle_angle_r/accel	/jointset/subtalar_r/subtalar_angle_r/accel	gamma_cid13_p0	gamma_cid14_p0	gamma_cid14_p1	gamma_cid14_p2	gamma_cid14_p3	gamma_cid14_p4	gamma_cid14_p5
0	-0.004667026930008393	0.1303910244369923	0.9336713287319776	0.1934208783645156	-0.2248095479397793	-0.2386456755522343	-0.2903791543005566	0.231179331402159	0.2311793314021609	0.1254430646194198	0.1683674553043854	0.08934340440958972	0.06800489446071387	0	0	0	0	0	0	0	0	0	0	0	0	0	0.09560400968182652	-0.0761890811704085	0.002621274730744085	-0.2460756017283894	0.1320584244232429	-0.06738162352684876	-0.01359334521492754	-29.76065270963058	-3.063141206354278	-25.03984540538192	-1.023469242777253	-9.135375082523192	-618.9907211288506	61.74337943463662	-0.8711091974913728	-1.275028116973656	-0.6278741067483328	7.155415176421344	0.2353928964178525	1.605518558043869	-5.615284177259429	8.28561228230371	8.285612282303958	-2.684067693288454	0.3437471405643096	2.68914818071686	1.061298909846897	3.463749662429266e-08	1.888268079305808e-08	-2.493727339611525e-07	2.088500074128665e-07	1.202545147799925e-08	1.058471315123558e-07	-2.570618951887183e-07
0.01	-0.00470636534319171	0.130328115083979	0.9336408726855279	0.1937691775983175	-0.2247959488413932	-0.2385657879347199	-0.2906603199315264	0.231585822847216	0.2315858228472189	0.1253070507595067	0.1683819537513521	0.08947592542370066	0.06805966229203744	-0.007836518288522566	-0.0125145684707123	-0.006072301824265841	0.06932988377983967	0.002695904609902948	0.01590383665305761	-0.05586171574468484	0.08092133146881365	0.08092133146881476	-0.02704863142575993	0.002879735476680706	0.02638744848165476	0.01089242271738127	0.09176941311199079	-0.0779917606355124	0.002945503209291969	-0.241919069052057	0.1259603339596262	-0.06346351200764676	-0.01020374978664408	-29.76506342195599	-4.873505359783168	-23.52396938161773	-1.4150284292334	-8.50966204839842	-620.4194962002539	64.48382146837223	-0.7352493941011479	-1.229573487155334	-0.5940509309918047	6.772281095541163	0.2831038434322793	1.571804309632362	-5.515903705721118	7.938843020225154	7.938843020225178	-2.692158203972366	0.25713395244488	2.596034498132413	1.094027963893846	4.525662906435673e-08	1.521546017506778e-08	-3.088076691295596e-07	2.604620225147782e-07	2.327558733131015e-08	4.363801444215941e-08	-3.236553615868436e-07
0.02	-0.004823134189172704	0.1301420795912515	0.9335502650786902	0.1948008768932742	-0.2247561077768771	-0.2383290643325355	-0.2914889604064726	0.2327902174951744	0.2327902174951748	0.1249051711179835	0.1684246589933271	0.089868819185877	0.06822151715277686	-0.01548608655978656	-0.02462522794281783	-0.01203031207758091	0.1366800122307156	0.005248393226038471	0.03136719693394273	-0.1094949687952978	0.1595806405798252	0.1595806405798266	-0.05317315632162456	0.005641359002357652	0.05207454961301438	0.02141740588316702	0.08793481654215617	-0.07979444010062009	0.003269731687825879	-0.2377625363757224	0.1198622434960084	-0.05954540048844913	-0.006814154358359724	-29.77792222886836	-6.619769101130106	-22.01379262569203	-1.786348733199189	-7.86107070006791	-620.8168802112692	66.96111580649875	-0.8337191940396883	-1.194246317252272	-0.6050157925581802	6.759464110628591	0.2067096976643702	1.517423283609377	-5.169591638445077	7.833207810743277	7.833207810743363	-2.499246387309398	0.3201247503635521	2.549078710657863	0.9878109995278015	5.58757615044208e-08	1.154823955707748e-08	-3.682426042979668e-07	3.1207403761669e-07	3.452572318462105e-08	-1.857110262803701e-08	-3.902488279849688e-07
0.03	-0.005015697206494196	0.1298369182444574	0.9334004462931188	0.1964965894122475	-0.2246916238148434	-0.237940427786108	-0.2928428692240635	0.2347701639007753	0.2347701639007775	0.1242469633590988	0.1684948317470479	0.09051505499235026	0.06848661473241743	-0.02299274630062495	-0.03634314356179325	-0.01792967252098683	0.2021438509866932	0.007627365303165109	0.04628001482966305	-0.1609514608153659	0.2360456646592901	0.2360456646592962	-0.07831908601929105	0.008360338142798792	0.07705750998120876	0.03154823079556577	0.0839611726278154	-0.07635430103137437	0.003526160624919035	-0.2340547752914299	0.1152372502972715	-0.05935101447399654	-0.003393060046497665	-29.79874947918464	-8.116832966129911	-22.15778005895287	-1.801904761429767	-7.293019232528479	-621.4158468053945	65.8471537768426	-0.704070630304321	-1.150972555413239	-0.5818342584465332	6.39204993959803	0.2503446652372849	1.466256907143308	-5.083377897705541	7.498692106291829	7.498692106292485	-2.499894657700776	0.2429160775005837	2.455645048649791	1.017615779772062	5.761324139842169e-08	6.190608783849033e-09	-3.654580414611553e-07	3.290884125966551e-07	3.969156526076713e-08	-7.326998703198459e-08	-4.049521395724148e-07
